<?xml version="1.0" standalone="no"?>
<!DOCTYPE svg PUBLIC "-//W3C//DTD SVG 20010904//EN"
 "http://www.w3.org/TR/2001/REC-SVG-20010904/DTD/svg10.dtd">
<svg version="1.0" xmlns="http://www.w3.org/2000/svg"
 width="700.000000pt" height="700.000000pt" viewBox="0 0 700.000000 700.000000"
 preserveAspectRatio="xMidYMid meet">
<metadata>
Created by potrace 1.11, written by Peter Selinger 2001-2013
</metadata>
<g transform="translate(0.000000,700.000000) scale(0.100000,-0.100000)"
fill="#000000" stroke="none">
<path d="M4047 6040 c-36 -11 -55 -27 -72 -60 -7 -14 -66 -208 -130 -430 -278
-965 -418 -1447 -540 -1870 -31 -107 -58 -202 -60 -210 -4 -15 -59 -205 -190
-655 -125 -433 -174 -600 -270 -935 -53 -184 -121 -420 -151 -523 -60 -206
-65 -243 -41 -281 24 -36 65 -55 204 -92 100 -26 129 -31 158 -23 37 11 79 57
88 99 3 14 25 95 50 180 58 199 293 1010 362 1250 78 270 306 1060 359 1240
24 85 88 306 141 490 53 184 120 418 150 520 346 1193 330 1133 307 1175 -20
40 -50 55 -167 88 -156 45 -165 46 -198 37z"/>
<path d="M1905 5335 c-17 -9 -428 -413 -913 -898 l-882 -883 0 -43 c0 -26 8
-56 20 -75 11 -17 412 -423 892 -903 774 -773 877 -872 911 -878 22 -5 49 -3
66 5 16 6 81 64 144 129 121 124 136 151 112 209 -7 15 -344 359 -749 765
l-737 737 740 740 c764 764 765 765 753 830 -6 28 -212 244 -254 266 -34 18
-65 17 -103 -1z"/>
<path d="M4985 5331 c-16 -10 -76 -66 -133 -123 -112 -113 -130 -149 -107
-204 7 -16 344 -361 749 -767 l737 -737 -718 -718 c-395 -394 -730 -732 -745
-751 -21 -25 -28 -45 -28 -78 0 -43 3 -48 113 -160 61 -63 124 -121 139 -129
42 -22 81 -17 124 15 21 16 429 420 907 898 l867 868 0 54 0 54 -887 888
c-540 540 -899 893 -917 899 -42 15 -67 12 -101 -9z"/>
</g>
</svg>
